<svg xmlns="http://www.w3.org/2000/svg" viewBox="0 0 146.58 51.34"><defs><style>.cls-1,.cls-2{fill:#fff;}.cls-1{stroke:#000;stroke-miterlimit:10;stroke-width:0.28px;}</style></defs><g id="Layer_2" data-name="Layer 2"><g id="Layer_1-2" data-name="Layer 1"><rect class="cls-1" x="0.14" y="0.14" width="146.3" height="51.06"/><rect x="4.51" y="4.61" width="141.93" height="46.59"/><polygon class="cls-2" points="15.09 20.59 19.82 20.59 19.82 26.06 19.87 26.06 24.08 20.59 29.91 20.59 24.34 26.8 30.82 36.47 24.92 36.47 21.14 30.29 19.82 31.77 19.82 36.47 15.09 36.47 15.09 20.59"/><path class="cls-2" d="M45,30.33c0,4.39-2.3,6.51-7,6.51s-7-2.12-7-6.51V20.59h4.74v8.65c0,1.62,0,3.64,2.3,3.64s2.24-2,2.24-3.64V20.59H45Z"/><polygon class="cls-2" points="51.96 20.59 56.7 20.59 56.7 32.4 63.38 32.4 63.38 36.47 51.96 36.47 51.96 20.59"/><polygon class="cls-2" points="64.83 20.59 77.43 20.59 77.43 24.66 69.52 24.66 69.52 26.64 76.7 26.64 76.7 30.42 69.52 30.42 69.52 32.4 77.66 32.4 77.66 36.47 64.83 36.47 64.83 20.59"/><path class="cls-2" d="M92.88,30.33c0,4.39-2.3,6.51-7,6.51s-7-2.12-7-6.51V20.59h4.73v8.65c0,1.62,0,3.64,2.3,3.64s2.24-2,2.24-3.64V20.59h4.73Z"/><polygon class="cls-2" points="103.43 36.47 98.14 36.47 93.55 20.59 98.33 20.59 100.85 30.22 100.89 30.22 103.36 20.59 108.23 20.59 103.43 36.47"/><polygon class="cls-2" points="108.89 20.59 121.49 20.59 121.49 24.66 113.58 24.66 113.58 26.64 120.77 26.64 120.77 30.42 113.58 30.42 113.58 32.4 121.72 32.4 121.72 36.47 108.89 36.47 108.89 20.59"/><polygon class="cls-2" points="122.95 20.59 127.79 20.59 132.27 29.09 132.31 29.09 132.31 20.59 136.78 20.59 136.78 36.47 132.18 36.47 127.47 27.8 127.42 27.8 127.42 36.47 122.95 36.47 122.95 20.59"/></g></g></svg>